# xmcd CD database file generated by OrangeCD 6.4
#
# Track frame offsets:
#	150
#	15643
#	32102
#	54928
#	83914
#	101841
#	112884
#	137322
#	155521
#	179015
#	195624
#
# Disc length: 2985 seconds
#
# Revision: 0
# Processed by: cddbd v1.5.2PL0 Copyright (c) Steve Scherf et al.
# Submitted via: OrangeCD 6.4
#
DISCID=870ba70b
DTITLE=The Black Cadillacs - Run
DYEAR=2012
DGENRE=
TTITLE0=Classic Fool
TTITLE1=Run, Run
TTITLE2=Would You Be So Kind
TTITLE3=I Know It's Hard
TTITLE4=Choke
TTITLE5=How You're Feeling
TTITLE6=100 Guns
TTITLE7=Find My Own Way
TTITLE8=Goodbye Fate
TTITLE9=Shade
TTITLE10=Go On, Go Off
EXTD=
EXTT0=
EXTT1=
EXTT2=
EXTT3=
EXTT4=
EXTT5=
EXTT6=
EXTT7=
EXTT8=
EXTT9=
EXTT10=
PLAYORDER=
